<svg xmlns="http://www.w3.org/2000/svg" viewBox="0 0 139.34 139.34"><defs><style>.cls-1{fill:#ec633b;}.cls-2{fill:#2d2a28;}</style></defs><g id="Livello_2" data-name="Livello 2"><g id="Livello_1-2" data-name="Livello 1"><g id="Group_48" data-name="Group 48"><g id="Group_42" data-name="Group 42"><rect id="Rectangle_15" data-name="Rectangle 15" class="cls-1" width="139.34" height="139.34" rx="37.83"/></g><g id="Group_47" data-name="Group 47"><g id="Group_43" data-name="Group 43"><path id="Path_9" data-name="Path 9" class="cls-2" d="M95.39,100.36a4.91,4.91,0,0,0,4.93-4.89,4.76,4.76,0,0,0-.15-1.25C97.06,82.63,85.36,74,71.41,74s-25.66,8.61-28.76,20.2a4.91,4.91,0,0,0,3.53,6,5.28,5.28,0,0,0,1.25.15l18.21-2.43a42.12,42.12,0,0,1,11,0Z"/></g><g id="Group_46" data-name="Group 46"><g id="Group_44" data-name="Group 44"><path id="Path_10" data-name="Path 10" class="cls-2" d="M47,47.23c2.94-2,5.23-4.8,7.7-7.36A2.48,2.48,0,0,1,56,39a1.68,1.68,0,0,1,1.68,1.14,4.17,4.17,0,0,1,.07,2.16C56.7,48.64,52,53.89,46.51,57.23a22.24,22.24,0,0,1-9.61,3.4,13.11,13.11,0,0,1-9.23-2.54c-2.15-1.77-3.3-4.77-.26-6,2.54-1,6.5-.45,9.24-.94A26.23,26.23,0,0,0,47,47.23Z"/></g><g id="Group_45" data-name="Group 45"><path id="Path_11" data-name="Path 11" class="cls-2" d="M92.34,47.23c-2.93-2-5.23-4.8-7.69-7.36A2.51,2.51,0,0,0,83.32,39a1.67,1.67,0,0,0-1.67,1.14,4.06,4.06,0,0,0-.07,2.16c1.07,6.35,5.75,11.6,11.25,14.94a22.24,22.24,0,0,0,9.61,3.4,13.1,13.1,0,0,0,9.23-2.54c2.16-1.77,3.31-4.77.27-6-2.54-1-6.5-.45-9.24-.94A26.28,26.28,0,0,1,92.34,47.23Z"/></g></g></g></g></g></g></svg>