<svg xmlns="http://www.w3.org/2000/svg" viewBox="0 0 139.34 139.34"><defs><style>.cls-1{fill:#a8ca56;}.cls-2{fill:#2d2a28;}</style></defs><g id="Livello_2" data-name="Livello 2"><g id="Livello_1-2" data-name="Livello 1"><g id="Group_28" data-name="Group 28"><g id="Group_22" data-name="Group 22"><rect id="Rectangle_12" data-name="Rectangle 12" class="cls-1" width="139.34" height="139.34" rx="37.83"/></g><g id="Group_27" data-name="Group 27"><g id="Group_25" data-name="Group 25"><g id="Group_23" data-name="Group 23"><path id="Path_4" data-name="Path 4" class="cls-2" d="M21.26,55.38a1.37,1.37,0,0,1-.11-.36c-1.33-7.5,13-9.41,17.58-8a19.6,19.6,0,0,1,6.62,3.64c.73.62,5.4,6.47,2,6.55A2.33,2.33,0,0,1,46,56.68c-3.08-2.17-4.71-5.39-8.59-6.31A12.41,12.41,0,0,0,25.58,54C24.64,55,22.27,57.85,21.26,55.38Z"/></g><g id="Group_24" data-name="Group 24"><path id="Path_5" data-name="Path 5" class="cls-2" d="M115.75,55.38a1.89,1.89,0,0,0,.11-.36c1.33-7.5-13-9.41-17.58-8a19.6,19.6,0,0,0-6.62,3.64c-.73.62-5.4,6.47-2,6.55A2.33,2.33,0,0,0,91,56.68c3.08-2.17,4.71-5.39,8.58-6.31A12.42,12.42,0,0,1,111.43,54C112.37,55,114.74,57.85,115.75,55.38Z"/></g></g><g id="Group_26" data-name="Group 26"><path id="Path_6" data-name="Path 6" class="cls-2" d="M41.44,81.54c17.22,5.92,37.23,5.56,54.41-.37A61,61,0,0,0,113.26,72c1.63-1.26,4.62-3.9,6.53-1.44,1.09,1.4.17,3.75-.58,5.1-1.83,3.27-5.06,5.58-8,7.76a58.51,58.51,0,0,1-12.63,7,76,76,0,0,1-23.85,5.28,91.51,91.51,0,0,1-9.22.17h-.27a92.08,92.08,0,0,1-13.05-1.35,73.71,73.71,0,0,1-23.5-8.36c-.8-.44-1.58-.9-2.36-1.38-2.61-1.59-5.12-3.19-6.62-6a4.56,4.56,0,0,1-.53-3.31,3.54,3.54,0,0,1,4.32-2.17c2.77.59,5,2.18,7.43,3.54a66.94,66.94,0,0,0,7.93,3.77C39.71,80.92,40.57,81.24,41.44,81.54Z"/></g></g></g></g></g></svg>