<svg xmlns="http://www.w3.org/2000/svg" viewBox="0 0 140.34 140.34"><defs><style>.cls-1{fill:#87bd25;stroke:#87bd25;}.cls-2{fill:#2d2a28;}</style></defs><g id="Livello_2" data-name="Livello 2"><g id="Livello_1-2" data-name="Livello 1"><g id="Group_21" data-name="Group 21"><g id="Group_12" data-name="Group 12"><rect id="Rectangle_11" data-name="Rectangle 11" class="cls-1" x="0.5" y="0.5" width="139.34" height="139.34" rx="37.83"/></g><g id="Group_20" data-name="Group 20"><g id="Group_15" data-name="Group 15"><g id="Group_13" data-name="Group 13"><circle id="Ellipse_2" data-name="Ellipse 2" class="cls-2" cx="20.68" cy="78.33" r="8.66"/></g><g id="Group_14" data-name="Group 14"><circle id="Ellipse_3" data-name="Ellipse 3" class="cls-2" cx="119.66" cy="78.33" r="8.66"/></g></g><g id="Group_16" data-name="Group 16"><path id="Path_1" data-name="Path 1" class="cls-2" d="M87.55,80.67a6.26,6.26,0,0,1,5.59,9C89.23,97.56,80.42,103,70.17,103s-19.06-5.48-23-13.32a6.24,6.24,0,0,1,5.59-9Z"/></g><g id="Group_19" data-name="Group 19"><g id="Group_17" data-name="Group 17"><path id="Path_2" data-name="Path 2" class="cls-2" d="M34.48,62.06a28,28,0,0,1-2.13-2c-2.9-2.94-6.38-7.8-5-12.17,1.09-3.37,5.06-4.37,8.23-4.16a13.81,13.81,0,0,1,5,1.38,16,16,0,0,1,1.88,1,.91.91,0,0,0,1.26-.28.82.82,0,0,0,.14-.45c.15-2.91,1.18-6,3.8-7.37,2.85-1.54,6-.52,8.09,1.76,3.38,3.67,3,8.73,1.63,13.18a57.17,57.17,0,0,1-3.73,9.06A22.22,22.22,0,0,1,51,66.75c-2.09,2.38-5.15,1.78-7.73.63A39.21,39.21,0,0,1,34.48,62.06Z"/></g><g id="Group_18" data-name="Group 18"><path id="Path_3" data-name="Path 3" class="cls-2" d="M105.86,62.06a28,28,0,0,0,2.13-2c2.9-2.94,6.38-7.8,5-12.17-1.1-3.37-5.07-4.37-8.24-4.16a13.81,13.81,0,0,0-5,1.38,16.85,16.85,0,0,0-1.88,1,.91.91,0,0,1-1.26-.28.88.88,0,0,1-.14-.45c-.14-2.91-1.18-6-3.8-7.37-2.85-1.54-6-.52-8.09,1.76-3.38,3.67-3,8.73-1.63,13.18a57.12,57.12,0,0,0,3.72,9.06,22.26,22.26,0,0,0,2.73,4.7c2.09,2.38,5.15,1.78,7.72.63A38.83,38.83,0,0,0,105.86,62.06Z"/></g></g></g></g></g></g></svg>